<?xml version="1.0" standalone="no"?><!DOCTYPE svg PUBLIC "-//W3C//DTD SVG 1.1//EN" "http://www.w3.org/Graphics/SVG/1.1/DTD/svg11.dtd"><svg class="icon" width="200px" height="200.00px" viewBox="0 0 1024 1024" version="1.1" xmlns="http://www.w3.org/2000/svg"><path d="M541.3376 389.7856c-71.168 0-126.976 52.3264-126.976 121.344a121.9584 121.9584 0 0 0 125.5936 122.88 136.5504 136.5504 0 0 0 94.2592-40.8064l5.4272-5.5296-36.3008-40.3456-6.0928 6.0928a82.8416 82.8416 0 0 1-55.3472 23.8592 66.4576 66.4576 0 0 1 0-132.864 76.288 76.288 0 0 1 54.9376 26.4192l6.4512 7.4752 35.7376-45.056-5.2224-5.12a133.376 133.376 0 0 0-92.3648-38.3488h-0.1024zM803.328 565.7088l38.8096 66.4576h69.12l-52.736-79.36c26.5216-14.848 40.7552-41.6256 40.7552-76.0832 0-26.6752-8.96-48.4864-26.624-63.488-17.4592-14.848-42.3424-22.0672-72.5504-22.0672h-101.9904v240.64h59.392v-66.0992h45.824z m28.6208-62.464c-6.5024 5.376-16.8448 8.6528-31.8464 8.6528h-42.5472V445.0816h42.496c15.2064 0 25.6 3.072 32 8.192 6.144 4.8128 9.8816 12.4416 9.8816 24.7296s-3.7888 20.1728-9.984 25.2928zM247.2448 633.9584c71.8336 0 127.8976-52.5312 127.8976-121.9584 0-69.7344-55.6032-121.9584-127.488-121.9584C175.9232 390.0416 119.808 442.88 119.808 512c0 69.0176 55.552 121.9584 127.4368 121.9584z m-47.0016-74.0864A68.0448 68.0448 0 0 1 180.1216 512a67.2256 67.2256 0 1 1 68.1984 67.584 68.096 68.096 0 0 1-48.0768-19.712zM51.2 0a51.2 51.2 0 0 0-51.2 51.2v204.8h66.56V66.56H256V0H51.2z m15.36 768H0v204.8a51.2 51.2 0 0 0 51.2 51.2h204.8v-66.56H66.56V768z m890.88 0H1024v204.8a51.2 51.2 0 0 1-51.2 51.2h-204.8v-66.56h189.44V768zM1024 256V51.2a51.2 51.2 0 0 0-51.2-51.2h-204.8v66.56h189.44V256H1024z" fill="#333f50" /></svg>